HIERARCHY
ROOT Hips
{
	OFFSET 0.00000 0.00000 0.00000
	CHANNELS 6 Xposition Yposition Zposition Zrotation Yrotation Xrotation 
	JOINT LHipJoint
	{
		OFFSET 0 0 0
		CHANNELS 3 Zrotation Yrotation Xrotation
		JOINT LeftUpLeg
		{
			OFFSET 1.74857 -1.85566 0.69197
			CHANNELS 3 Zrotation Yrotation Xrotation
			JOINT LeftLeg
			{
				OFFSET 2.40003 -6.59403 0.00000
				CHANNELS 3 Zrotation Yrotation Xrotation
				JOINT LeftFoot
				{
					OFFSET 2.82169 -7.75254 0.00000
					CHANNELS 3 Zrotation Yrotation Xrotation
					JOINT LeftToeBase
					{
						OFFSET 0.16466 -0.45240 2.26890
						CHANNELS 3 Zrotation Yrotation Xrotation
						End Site
						{
							OFFSET 0.00000 -0.00000 1.16486
						}
					}
				}
			}
		}
	}
	JOINT RHipJoint
	{
		OFFSET 0 0 0
		CHANNELS 3 Zrotation Yrotation Xrotation
		JOINT RightUpLeg
		{
			OFFSET -1.64169 -1.85566 0.69197
			CHANNELS 3 Zrotation Yrotation Xrotation
			JOINT RightLeg
			{
				OFFSET -2.41814 -6.64379 0.00000
				CHANNELS 3 Zrotation Yrotation Xrotation
				JOINT RightFoot
				{
					OFFSET -2.80588 -7.70911 0.00000
					CHANNELS 3 Zrotation Yrotation Xrotation
					JOINT RightToeBase
					{
						OFFSET -0.19098 -0.52472 2.25401
						CHANNELS 3 Zrotation Yrotation Xrotation
						End Site
						{
							OFFSET -0.00000 -0.00000 1.16333
						}
					}
				}
			}
		}
	}
	JOINT LowerBack
	{
		OFFSET 0 0 0
		CHANNELS 3 Zrotation Yrotation Xrotation
		JOINT Spine
		{
			OFFSET -0.02828 2.14690 -0.11061
			CHANNELS 3 Zrotation Yrotation Xrotation
			JOINT Spine1
			{
				OFFSET -0.00167 2.15299 0.00759
				CHANNELS 3 Zrotation Yrotation Xrotation
				JOINT Neck
				{
					OFFSET 0 0 0
					CHANNELS 3 Zrotation Yrotation Xrotation
					JOINT Neck1
					{
						OFFSET -0.09296 1.90118 0.07197
						CHANNELS 3 Zrotation Yrotation Xrotation
						JOINT Head
						{
							OFFSET 0.08490 1.89526 -0.24604
							CHANNELS 3 Zrotation Yrotation Xrotation
							End Site
							{
								OFFSET 0.03186 1.92109 -0.09483
							}
						}
					}
				}
				JOINT LeftShoulder
				{
					OFFSET 0 0 0
					CHANNELS 3 Zrotation Yrotation Xrotation
					JOINT LeftArm
					{
						OFFSET 3.21569 1.44644 -0.03720
						CHANNELS 3 Zrotation Yrotation Xrotation
						JOINT LeftForeArm
						{
							OFFSET 5.47651 -0.00000 -0.00000
							CHANNELS 3 Zrotation Yrotation Xrotation
							JOINT LeftHand
							{
								OFFSET 3.09058 -0.00000 -0.00000
								CHANNELS 3 Zrotation Yrotation Xrotation
								JOINT LeftFingerBase
								{
									OFFSET 0 0 0
									CHANNELS 3 Zrotation Yrotation Xrotation
									JOINT LeftHandIndex1
									{
										OFFSET 0.77161 -0.00000 -0.00000
										CHANNELS 3 Zrotation Yrotation Xrotation
										End Site
										{
											OFFSET 0.62209 -0.00000 -0.00000
										}
									}
								}
								JOINT LThumb
								{
									OFFSET 0 0 0
									CHANNELS 3 Zrotation Yrotation Xrotation
									End Site
									{
										OFFSET 0.63159 -0.00000 0.63159
									}
								}
							}
						}
					}
				}
				JOINT RightShoulder
				{
					OFFSET 0 0 0
					CHANNELS 3 Zrotation Yrotation Xrotation
					JOINT RightArm
					{
						OFFSET -3.38693 1.28904 -0.07093
						CHANNELS 3 Zrotation Yrotation Xrotation
						JOINT RightForeArm
						{
							OFFSET -5.14182 -0.00000 -0.00000
							CHANNELS 3 Zrotation Yrotation Xrotation
							JOINT RightHand
							{
								OFFSET -3.35565 -0.00000 -0.00000
								CHANNELS 3 Zrotation Yrotation Xrotation
								JOINT RightFingerBase
								{
									OFFSET 0 0 0
									CHANNELS 3 Zrotation Yrotation Xrotation
									JOINT RightHandIndex1
									{
										OFFSET -0.80104 -0.00000 -0.00000
										CHANNELS 3 Zrotation Yrotation Xrotation
										End Site
										{
											OFFSET -0.64582 -0.00000 -0.00000
										}
									}
								}
								JOINT RThumb
								{
									OFFSET 0 0 0
									CHANNELS 3 Zrotation Yrotation Xrotation
									End Site
									{
										OFFSET -0.65568 -0.00000 0.65568
									}
								}
							}
						}
					}
				}
			}
		}
	}
}
MOTION
Frames: 14
Frame Time: .0083333
0.9745 17.9867 -1.4927 0.8946 -8.1416 7.1346 0.0000 0.0000 0.0000 -22.0335 -1.7820 -22.2536 2.2938 9.4529 27.2227 0.6406 8.6717 -20.6718 0.2976 -3.5077 -9.6957 0.0000 0.0000 0.0000 13.4742 8.3643 -23.3886 -2.5417 -9.9134 28.6967 0.0518 -10.1380 -13.5710 -0.5869 4.9051 -13.6381 0.8801 3.4538 13.7253 1.0636 4.5146 12.5632 0.2451 2.2553 5.6610 -3.5391 -6.4302 1.7082 6.0650 -8.3253 -11.3612 2.9173 -4.2733 -3.5779 0.0000 0.0000 0.0000 -67.3908 -66.0247 59.8006 54.1744 -54.5464 -29.5423 -0.0000 0.0000 -83.6342 32.5980 50.0905 26.1287 -7.1250 0.0000 -0.0000 -40.3260 83.3034 -35.7924 0.0000 0.0000 0.0000 65.9683 56.7639 45.5920 -54.9427 54.8043 -30.1692 0.0000 -0.0000 -70.8668 -29.4685 -4.5448 2.5636 7.1250 -0.0000 -0.0000 -2.3410 -35.1886 -0.5645
0.9737 17.9724 -1.5153 0.8463 -8.2774 7.0780 0.0000 0.0000 0.0000 -21.9411 -1.7098 -22.6216 2.3871 9.6296 27.7854 0.6707 8.5494 -20.8598 0.3138 -3.6011 -9.9569 0.0000 0.0000 0.0000 13.5282 8.4436 -23.6013 -2.5979 -10.0137 29.0211 0.0283 -9.9789 -13.7403 -0.5535 4.7657 -13.2416 1.0039 3.4240 14.2475 1.0624 4.4853 12.6230 0.1475 2.2490 5.4597 -3.5624 -6.4440 1.6767 6.0367 -8.3506 -11.2361 2.9048 -4.2835 -3.5268 -0.0000 0.0000 0.0000 -67.9576 -65.6463 60.1665 54.2711 -54.5793 -29.6211 -0.0000 0.0000 -83.1110 29.8679 50.4257 23.8768 -7.1250 0.0000 -0.0000 -44.9843 82.2079 -39.1932 -0.0000 0.0000 0.0000 66.7472 56.3354 46.1463 -55.2729 54.9127 -30.4392 0.0000 -0.0000 -70.8225 -29.7163 -4.3482 2.4779 7.1250 -0.0000 -0.0000 -2.5476 -34.9742 -0.6277
0.9716 17.9575 -1.5422 0.9389 -8.4487 7.2595 0.0000 0.0000 0.0000 -21.9961 -1.7049 -23.2522 2.4727 9.7881 28.2932 0.6752 8.5207 -20.8785 0.3265 -3.6728 -10.1578 0.0000 0.0000 0.0000 13.3825 8.5907 -24.1595 -2.6634 -10.1292 29.3960 0.0087 -9.7977 -13.8105 -0.5204 4.6232 -12.8368 0.9810 3.4183 14.5919 0.9714 4.4779 12.5824 0.0416 2.2470 5.2378 -3.5611 -6.4598 1.5456 6.0725 -8.3702 -11.0177 2.8999 -4.2936 -3.4229 0.0000 -0.0000 0.0000 -68.3238 -65.2182 60.4835 54.4431 -54.6375 -29.7613 -0.0000 0.0000 -82.8786 28.6932 50.5242 22.9030 -7.1250 0.0000 -0.0000 -46.4704 81.7212 -40.1452 0.0000 -0.0000 0.0000 67.6634 55.9075 46.7603 -55.5907 55.0157 -30.6994 0.0000 -0.0000 -70.9109 -30.0951 -3.9829 2.3052 7.1250 -0.0000 -0.0000 -2.8608 -34.5698 -0.7332
0.9692 17.9391 -1.5685 1.0616 -8.6555 7.6983 0.0000 0.0000 0.0000 -22.0842 -1.7067 -24.1838 2.5559 9.9389 28.7791 0.6832 8.4111 -20.8625 0.3283 -3.6824 -10.1849 0.0000 0.0000 0.0000 13.1489 8.8471 -25.0109 -2.7307 -10.2458 29.7763 -0.0032 -9.6594 -13.8147 -0.5186 4.6153 -12.8146 0.6131 3.3003 15.4617 0.8847 4.2967 11.9314 0.0897 2.1326 4.0358 -3.5161 -6.2886 1.4230 5.8377 -8.1686 -10.2328 2.7688 -4.1810 -3.1499 0.0000 -0.0000 0.0000 -68.3686 -63.8511 60.3564 54.6282 -54.6997 -29.9123 -0.0000 0.0000 -82.9214 30.0269 50.4180 24.0108 -7.1250 0.0000 -0.0000 -44.8124 82.2769 -39.0920 0.0000 -0.0000 0.0000 69.4616 54.9712 48.6343 -55.8515 55.0991 -30.9132 0.0000 -0.0000 -70.8411 -30.4056 -3.7098 2.1745 7.1250 -0.0000 -0.0000 -3.1149 -34.2665 -0.8214
0.9688 17.9207 -1.5876 1.1191 -8.9137 7.9226 0.0000 0.0000 0.0000 -22.1200 -1.6248 -24.8259 2.6350 10.0794 29.2341 0.7045 8.2667 -20.9451 0.3104 -3.5816 -9.9024 0.0000 0.0000 0.0000 13.0049 9.1186 -25.5792 -2.7991 -10.3625 30.1588 -0.0175 -9.5448 -13.8945 -0.5354 4.6884 -13.0220 0.4946 3.3058 15.4515 0.8792 4.2872 12.0124 0.1547 2.1194 4.1217 -3.5775 -6.2640 1.3539 5.8101 -8.1422 -10.1174 2.7613 -4.1640 -3.0973 -0.0000 0.0000 0.0000 -68.7329 -63.5508 60.4443 54.8062 -54.7591 -30.0576 -0.0000 0.0000 -82.9074 31.2408 50.4868 25.0784 -7.1250 0.0000 -0.0000 -44.3563 82.8725 -39.1388 -0.0000 0.0000 0.0000 70.1528 54.7685 49.1695 -55.9819 55.1405 -31.0202 0.0000 -0.0000 -70.6135 -30.4724 -3.7094 2.1800 7.1250 -0.0000 -0.0000 -3.1700 -34.2684 -0.8358
0.9712 17.9036 -1.6042 1.1791 -9.1599 7.8605 0.0000 0.0000 0.0000 -22.1690 -1.5359 -25.1109 2.7116 10.2129 29.6689 0.7234 8.2025 -21.0731 0.3069 -3.5615 -9.8461 0.0000 0.0000 0.0000 12.9023 9.2650 -25.7942 -2.8611 -10.4667 30.5016 -0.0495 -9.2918 -14.0759 -0.5084 4.5706 -12.6877 0.4991 3.2952 15.7517 0.8374 4.2688 12.1647 0.0993 2.1110 4.1366 -3.7138 -6.2647 1.1639 5.9366 -8.1393 -9.8841 2.8074 -4.1604 -2.9717 -0.0000 0.0000 0.0000 -69.1445 -63.2553 60.5637 55.1902 -54.8857 -30.3715 -0.0000 0.0000 -83.0459 32.1145 50.3995 25.8088 -7.1250 0.0000 -0.0000 -43.0358 83.2379 -38.2123 -0.0000 0.0000 0.0000 70.9144 54.5644 49.6828 -56.1286 55.1868 -31.1405 0.0000 -0.0000 -70.3006 -30.4294 -3.6894 2.1646 7.1250 -0.0000 -0.0000 -3.1343 -34.2437 -0.8283
0.9736 17.8866 -1.6208 1.2348 -9.3653 7.8139 0.0000 0.0000 0.0000 -22.1645 -1.5669 -25.3718 2.7864 10.3410 30.0883 0.7826 7.9629 -21.4360 0.2488 -3.2096 -8.8628 0.0000 0.0000 0.0000 12.8242 9.3268 -26.0093 -2.9146 -10.5555 30.7951 -0.0754 -9.0577 -14.1868 -0.4966 4.5182 -12.5393 0.5648 3.2561 16.0629 0.7600 4.2209 12.3083 -0.0247 2.0934 4.1443 -3.7572 -6.2603 0.7438 5.9929 -8.1284 -9.5073 2.7964 -4.1507 -2.7621 0.0000 0.0000 0.0000 -69.4378 -63.0090 60.6815 55.5828 -55.0131 -30.6929 -0.0000 0.0000 -83.3486 33.7452 49.6236 26.9729 -7.1250 0.0000 -0.0000 -35.6226 83.5782 -31.7089 0.0000 0.0000 0.0000 71.7350 54.3872 50.2137 -56.2829 55.2352 -31.2673 0.0000 -0.0000 -69.9236 -30.4724 -3.7742 2.2180 7.1250 -0.0000 -0.0000 -3.1707 -34.3434 -0.8303
0.9728 17.8706 -1.6380 1.2715 -9.5764 7.9406 0.0000 0.0000 0.0000 -22.0882 -1.6734 -25.8262 2.8663 10.4753 30.5301 0.8717 7.5173 -21.9052 0.1463 -2.4645 -6.7913 0.0000 0.0000 0.0000 12.7568 9.4332 -26.4233 -2.9649 -10.6381 31.0688 -0.0857 -8.9260 -14.1825 -0.5352 4.6875 -13.0193 0.5416 3.2285 16.1950 0.7203 4.1789 12.3863 -0.0529 2.0714 4.1631 -3.8148 -6.2458 0.3563 6.0046 -8.1084 -9.1399 2.7758 -4.1343 -2.5653 0.0000 -0.0000 0.0000 -69.9586 -62.6912 60.8690 55.6423 -55.0323 -30.7417 -0.0000 0.0000 -82.8803 34.3043 48.6403 27.1166 -7.1250 0.0000 -0.0000 -28.1861 83.1948 -24.8043 0.0000 -0.0000 0.0000 72.5609 54.2135 50.8038 -56.3914 55.2691 -31.3565 0.0000 -0.0000 -69.4887 -30.6258 -3.8778 2.2927 7.1250 -0.0000 -0.0000 -3.2988 -34.4693 -0.8538
0.9709 17.8527 -1.6568 1.2616 -9.7859 8.1083 0.0000 0.0000 0.0000 -21.9884 -1.7315 -26.3579 2.9558 10.6231 31.0190 0.9292 7.2251 -22.2016 0.0993 -2.0320 -5.5942 0.0000 0.0000 0.0000 12.7320 9.6090 -26.8690 -3.0166 -10.7219 31.3475 -0.0899 -8.8739 -14.1825 -0.5632 4.8068 -13.3583 0.5015 3.2221 16.3031 0.7077 4.1627 12.4185 -0.0470 2.0601 4.1406 -3.8057 -6.2242 0.0831 5.9745 -8.0827 -8.7672 2.7358 -4.1166 -2.3937 0.0000 0.0000 0.0000 -70.5737 -62.3393 61.0883 55.5913 -55.0159 -30.6999 -0.0000 0.0000 -82.1412 33.4649 48.5891 26.3696 -7.1250 0.0000 -0.0000 -29.2935 82.7698 -25.5615 0.0000 0.0000 0.0000 73.4455 54.0128 51.3917 -56.4263 55.2799 -31.3851 0.0000 -0.0000 -69.1354 -30.8052 -3.9454 2.3492 7.1250 -0.0000 -0.0000 -3.4480 -34.5547 -0.8854
0.9712 17.8330 -1.6747 1.2441 -9.9685 8.2288 0.0000 0.0000 0.0000 -21.9348 -1.6850 -26.8830 3.0531 10.7805 31.5431 0.9475 7.1343 -22.2973 0.1089 -2.1278 -5.8590 0.0000 0.0000 0.0000 12.6944 9.7953 -27.2458 -3.0734 -10.8129 31.6515 -0.1164 -8.6816 -14.3593 -0.4877 4.4779 -12.4253 0.5090 3.2224 16.5086 0.7109 4.1606 12.4299 -0.0590 2.0582 4.0471 -3.8024 -6.2114 -0.1705 5.9360 -8.0706 -8.3628 2.6946 -4.1051 -2.2157 0.0000 0.0000 0.0000 -71.2731 -62.0469 61.4111 55.6271 -55.0274 -30.7292 -0.0000 0.0000 -81.7413 31.3770 49.5089 24.8817 -7.1250 0.0000 -0.0000 -37.7294 82.4011 -32.8283 0.0000 0.0000 0.0000 74.1787 53.8006 51.8547 -56.4203 55.2780 -31.3801 0.0000 -0.0000 -68.8820 -30.9940 -3.8470 2.3080 7.1250 -0.0000 -0.0000 -3.6027 -34.4478 -0.9346
0.9706 17.8152 -1.6902 1.2360 -10.1135 8.2639 0.0000 0.0000 0.0000 -21.9323 -1.5271 -27.3266 3.1509 10.9354 32.0623 0.9363 7.1579 -22.2151 0.1424 -2.4316 -6.7000 0.0000 0.0000 0.0000 12.6746 9.9301 -27.5347 -3.1340 -10.9089 31.9733 -0.1377 -8.5488 -14.5262 -0.4541 4.3229 -11.9868 0.4961 3.1865 16.8173 0.7495 4.1083 12.4659 -0.0209 2.0282 3.9230 -3.9461 -6.2105 -0.4729 5.9140 -8.0747 -7.9827 2.6838 -4.0976 -2.0312 -0.0000 0.0000 0.0000 -71.8278 -61.7891 61.5760 55.7174 -55.0563 -30.8032 -0.0000 0.0000 -81.5789 30.2478 50.0169 24.0759 -7.1250 0.0000 -0.0000 -42.0572 82.1701 -36.5323 -0.0000 0.0000 0.0000 74.8973 53.6841 52.4051 -56.3319 55.2505 -31.3075 0.0000 -0.0000 -68.5710 -31.1764 -3.5243 2.1301 7.1250 -0.0000 -0.0000 -3.7470 -34.0791 -1.0057
0.9686 17.7985 -1.7075 1.2866 -10.2578 8.3135 0.0000 0.0000 0.0000 -21.9910 -1.3999 -27.7801 3.2425 11.0776 32.5422 0.9102 7.2948 -22.0836 0.1984 -2.8684 -7.9126 0.0000 0.0000 0.0000 12.6020 10.0583 -27.8768 -3.2007 -11.0131 32.3242 -0.1487 -8.4896 -14.6226 -0.4668 4.3821 -12.1542 0.4446 3.1566 17.1155 0.7525 4.0595 12.5031 0.0019 1.9990 3.8062 -4.0815 -6.2349 -0.8574 5.9063 -8.1093 -7.5657 2.6717 -4.1052 -1.8196 -0.0000 0.0000 0.0000 -72.2492 -61.5919 61.6952 55.8737 -55.1062 -30.9314 -0.0000 0.0000 -81.4152 31.4406 50.1590 25.1467 -7.1250 0.0000 -0.0000 -41.9028 82.7976 -36.8571 -0.0000 0.0000 0.0000 75.6143 53.5340 52.8720 -56.3126 55.2445 -31.2917 0.0000 -0.0000 -68.1650 -31.2725 -3.3436 2.0287 7.1250 -0.0000 -0.0000 -3.8220 -33.8717 -1.0452
0.9671 17.7813 -1.7250 1.2997 -10.4102 8.4511 0.0000 0.0000 0.0000 -21.9150 -1.4906 -28.2686 3.3283 11.2084 32.9860 0.9580 7.1063 -22.3693 0.1709 -2.6631 -7.3422 0.0000 0.0000 0.0000 12.5372 10.2309 -28.3316 -3.2712 -11.1216 32.6911 -0.1662 -8.3747 -14.7505 -0.4559 4.3316 -12.0116 0.4651 3.1334 17.2944 0.7349 4.0289 12.5273 -0.0328 1.9847 3.7438 -4.1652 -6.2525 -1.0837 5.9358 -8.1324 -7.2917 2.6759 -4.1117 -1.6848 -0.0000 0.0000 0.0000 -72.7565 -61.4400 62.0547 55.9780 -55.1393 -31.0169 -0.0000 0.0000 -81.4547 32.9375 49.8433 26.3422 -7.1250 0.0000 -0.0000 -38.1811 83.3255 -33.8612 -0.0000 0.0000 0.0000 76.3437 53.3423 53.2601 -56.4044 55.2731 -31.3671 0.0000 -0.0000 -67.8195 -31.2812 -3.2788 1.9902 7.1250 -0.0000 -0.0000 -3.8276 -33.7964 -1.0537
0.9672 17.7635 -1.7377 1.3427 -10.5683 8.6055 0.0000 0.0000 0.0000 -21.8882 -1.5605 -28.7524 3.4114 11.3329 33.4111 1.0076 6.8520 -22.6202 0.1360 -2.3766 -6.5475 0.0000 0.0000 0.0000 12.4195 10.3779 -28.8065 -3.3471 -11.2368 33.0827 -0.1921 -8.1897 -14.9222 -0.4266 4.1917 -11.6167 0.4816 3.1023 17.4143 0.7083 3.9886 12.5118 -0.0717 1.9657 3.6680 -4.2576 -6.2606 -1.1878 5.9377 -8.1472 -7.0268 2.6786 -4.1144 -1.5761 0.0000 -0.0000 0.0000 -73.4079 -61.1704 62.4883 56.0656 -55.1670 -31.0888 -0.0000 0.0000 -81.4889 33.4644 49.3965 26.6496 -7.1250 0.0000 -0.0000 -34.4010 83.3057 -30.4340 0.0000 -0.0000 0.0000 77.1440 53.1096 53.7109 -56.4491 55.2870 -31.4038 0.0000 -0.0000 -67.5547 -31.2670 -3.2178 1.9521 7.1250 -0.0000 -0.0000 -3.8146 -33.7249 -1.0567
